# xmcd
#
# Track frame offsets: 
#        150
#        19486
#        38061
#        54408
#        79330
#        98765
#        116871
#        133466
#        155965
#        175681
#
# Disc length: 2629 seconds
#
# Revision: 1
# Processed by: cddbd v1.5.1PL2 Copyright (c) Steve Scherf et al.
# Submitted via: ExactAudioCopy v0.95b3
#
DISCID=8c0a430a
DTITLE=NICOLAE GUTA - Volumul 24
DYEAR=2005
DGENRE=Manele
TTITLE0=Daca nu ne potrivim
TTITLE1=Te-am iubit
TTITLE2=Mi-e frica sa mai iubesc
TTITLE3=Ce noroc
TTITLE4=Inima mea
TTITLE5=Spune-mi
TTITLE6=Viata merge inainte
TTITLE7=Cum te-a lasat inima
TTITLE8=Oare cine
TTITLE9=O Scrisoare de iubire
EXTD=guta
EXTT0=
EXTT1=
EXTT2=
EXTT3=
EXTT4=
EXTT5=
EXTT6=
EXTT7=
EXTT8=
EXTT9=
PLAYORDER=
